<svg width="48" height="47" viewBox="0 0 48 47" fill="none" xmlns="http://www.w3.org/2000/svg">
<path d="M23.9401 46.88C27.2231 46.88 30.3084 46.27 33.1958 45.0501C36.0833 43.8302 38.6296 42.1358 40.8348 39.9671C43.0399 37.7983 44.7704 35.3004 46.0262 32.4732C47.2821 29.6461 47.91 26.635 47.91 23.44C47.91 20.245 47.2821 17.2339 46.0262 14.4067C44.7704 11.5796 43.0349 9.08165 40.8199 6.91292C38.6049 4.74414 36.0536 3.0498 33.1662 1.82991C30.2787 0.609968 27.1935 0 23.9105 0C20.6473 0 17.572 0.609968 14.6845 1.82991C11.7971 3.0498 9.25568 4.74414 7.0604 6.91292C4.86515 9.08165 3.1396 11.5796 1.88375 14.4067C0.627917 17.2339 0 20.245 0 23.44C0 26.635 0.627917 29.6461 1.88375 32.4732C3.1396 35.3004 4.87009 37.7983 7.07522 39.9671C9.28039 42.1358 11.8267 43.8302 14.7142 45.0501C17.6016 46.27 20.6769 46.88 23.9401 46.88ZM24.0234 7.38113C24.6232 8.23916 24.7341 9.28733 25.0842 10.2429C25.4342 11.1984 25.7303 12.1609 26.006 13.1352C26.0948 13.4504 26.2404 13.4947 26.5104 13.4928C28.2615 13.4849 30.0136 13.4928 31.7648 13.4829C32.1245 13.4829 32.4003 13.5598 32.5198 13.9341C32.6394 14.3085 32.4388 14.5528 32.1582 14.7586C30.7668 15.7832 29.384 16.8195 27.9809 17.8283C27.682 18.043 27.6145 18.2331 27.7312 18.5878C28.2847 20.2773 28.8025 21.9805 29.357 23.67C29.4804 24.0443 29.4158 24.3182 29.1207 24.53C28.8256 24.7418 28.572 24.5861 28.3281 24.4049C26.9298 23.3626 25.5249 22.3283 24.1372 21.2712C23.8402 21.0447 23.6377 21.0516 23.3427 21.2762C21.956 22.3352 20.551 23.3676 19.1538 24.4128C18.9059 24.599 18.6475 24.726 18.363 24.5231C18.0786 24.3202 18.0005 24.0404 18.1239 23.666C18.6706 22.0081 19.1779 20.3364 19.7285 18.6794C19.8596 18.2854 19.8249 18.0539 19.4701 17.7977C18.0911 16.8126 16.7411 15.7851 15.3718 14.7852C15.0748 14.5675 14.852 14.337 14.9668 13.9351C15.0815 13.5332 15.4007 13.4819 15.7662 13.4839C17.5019 13.4947 19.2377 13.4839 20.9734 13.4918C21.2376 13.4918 21.3851 13.4563 21.4806 13.1411C21.9724 11.5166 22.5076 9.90499 23.0158 8.28546C23.1138 7.96383 23.2585 7.65901 23.4449 7.38113H24.0234ZM35.5929 29.5102C35.2557 30.367 34.4621 30.5889 33.377 30.5804C28.8359 30.5542 24.2948 30.5696 19.7516 30.5696C18.4428 30.5696 17.671 29.8138 18.0868 28.9439C18.3046 28.4901 18.8934 28.2012 19.6234 28.2012C23.286 28.2012 26.9489 28.2012 30.6121 28.2012H33.6445C34.8499 28.2012 35.3184 28.4978 35.5919 29.4339L35.5929 29.5102ZM35.5929 35.4757C35.2766 36.2837 34.5625 36.5353 33.5163 36.5291C29.009 36.5011 24.5017 36.5182 19.9954 36.5143C19.6354 36.5143 19.2664 36.5494 18.9184 36.4317C18.2485 36.2182 17.8645 35.6636 18.0014 35.1072C18.1569 34.5571 18.7741 34.1626 19.4932 34.1536C20.3704 34.145 21.2496 34.1536 22.1277 34.1536H33.5143C34.8191 34.1536 35.1055 34.3024 35.5929 35.2444V35.4757ZM12.5059 28.9834C12.773 28.5121 13.0009 28.0186 13.5537 27.7756C14.4774 27.3677 15.5299 27.7176 15.9642 28.6041C16.3986 29.469 16.0511 30.5175 15.1825 30.9627C14.2794 31.4231 13.2549 31.1165 12.7459 30.2355C12.6656 30.0955 12.6749 29.904 12.5059 29.8147V28.9834ZM12.5059 34.9228C12.77 34.486 12.9632 34.0052 13.4821 33.7583C14.4312 33.3041 15.4942 33.6289 15.9655 34.5502C16.4143 35.4256 16.0214 36.4882 15.0901 36.936C14.9725 36.9919 14.8101 36.98 14.7457 37.1241H13.9991C13.2973 36.8791 12.8269 36.39 12.5059 35.7477V34.9228Z" fill="#FBF5EF"/>
</svg>
