<svg width="27" height="26" viewBox="0 0 27 26" fill="none" xmlns="http://www.w3.org/2000/svg">
<path d="M7.26701 12.9423C5.91402 12.9423 4.56165 12.9358 3.20866 12.9481C2.93618 12.9481 2.87556 12.8621 2.89119 12.628C3.11742 9.23845 4.71976 6.60029 7.77946 4.75628C7.97069 4.63923 8.05006 4.63631 8.1738 4.83821C9.53242 7.05657 10.8989 9.27102 12.2734 11.4816C12.3434 11.5951 12.3784 11.6712 12.2297 11.7666C11.8678 12.0007 11.6703 12.3448 11.6091 12.741C11.5791 12.9341 11.4841 12.9446 11.3254 12.9446C9.973 12.9411 8.62021 12.9403 7.26701 12.9423Z" fill="#FBF5EF"/>
<path d="M16.2829 18.0903C16.9797 19.2189 17.6706 20.3504 18.3782 21.4727C18.5186 21.7 18.474 21.7949 18.2598 21.9024C15.1578 23.4594 12.0089 23.4815 8.80892 21.8789C8.60733 21.7797 8.56388 21.715 8.67798 21.5077C9.93212 19.2319 11.1787 16.9514 12.4179 14.6663C12.4818 14.5495 12.5308 14.4811 12.6914 14.556C13.0839 14.7373 13.4887 14.7248 13.8692 14.5718C14.0548 14.4974 14.113 14.5712 14.1947 14.7036C14.8882 15.8336 15.5842 16.9625 16.2829 18.0903Z" fill="#FBF5EF"/>
<path d="M16.4642 8.02351C17.161 6.89486 17.8632 5.77004 18.5492 4.63506C18.6896 4.40776 18.7966 4.4015 18.9947 4.5351C21.8636 6.46957 23.362 9.16498 23.4103 12.6671C23.4149 12.8869 23.3766 12.9546 23.135 12.9539C20.4814 12.9447 17.8271 12.9441 15.1722 12.9521C15.0362 12.952 14.9512 12.942 14.9438 12.7688C14.9239 12.3464 14.7226 12.0045 14.4052 11.7493C14.2505 11.6248 14.2902 11.5402 14.3719 11.4077C15.0715 10.2814 15.7689 9.15335 16.4642 8.02351Z" fill="#FBF5EF"/>
<path d="M14.2223 12.935C14.2252 13.1168 14.1727 13.2953 14.0714 13.448C13.9701 13.6007 13.8245 13.7208 13.6531 13.793C13.4816 13.8652 13.2921 13.8863 13.1083 13.8536C12.9246 13.821 12.7549 13.736 12.6207 13.6095C12.4866 13.483 12.394 13.3206 12.3547 13.1429C12.3153 12.9652 12.331 12.7801 12.3998 12.6111C12.4685 12.4421 12.5872 12.2967 12.7409 12.1933C12.8945 12.0899 13.0762 12.0332 13.263 12.0303C13.5126 12.0293 13.7526 12.1235 13.9319 12.2925C14.1112 12.4616 14.2154 12.6921 14.2223 12.935Z" fill="#FBF5EF"/>
<path d="M13.2781 24.8979C20.0591 24.8979 25.5561 19.5482 25.5561 12.9489C25.5561 6.34972 20.0591 1 13.2781 1C6.49707 1 1 6.34972 1 12.9489C1 19.5482 6.49707 24.8979 13.2781 24.8979Z" stroke="#FBF5EF"/>
</svg>
