<svg width="25" height="25" viewBox="0 0 25 25" fill="none" xmlns="http://www.w3.org/2000/svg">
<path d="M12.5001 24.0739C18.8923 24.0739 24.0742 18.8921 24.0742 12.4999C24.0742 6.10767 18.8923 0.925781 12.5001 0.925781C6.10791 0.925781 0.926025 6.10767 0.926025 12.4999C0.926025 18.8921 6.10791 24.0739 12.5001 24.0739Z" stroke="#FBF5EF"/>
<path d="M18.2681 14.1041C18.2681 15.4705 18.2681 16.8367 18.2681 18.2029C18.2681 18.5458 18.0739 18.7554 17.7702 18.7481C17.6259 18.7447 17.5157 18.6731 17.4196 18.5771C17.0942 18.2511 16.7664 17.9271 16.4471 17.5955C16.3648 17.511 16.3239 17.5248 16.2489 17.6006C15.7717 18.0838 15.2899 18.5624 14.8081 19.0414C14.5484 19.3006 14.2948 19.293 14.0242 19.0228C13.5502 18.5495 13.0742 18.0784 12.6033 17.602C12.528 17.5257 12.4879 17.5119 12.4042 17.5964C11.9311 18.0753 11.4522 18.5506 10.9738 19.027C10.7029 19.298 10.4545 19.298 10.1807 19.027C9.70268 18.5503 9.22318 18.075 8.74859 17.5961C8.67733 17.5243 8.63925 17.5116 8.56135 17.5919C8.23438 17.9299 7.90298 18.2636 7.56716 18.5929C7.30549 18.8481 6.91745 18.785 6.78099 18.472C6.74705 18.3893 6.73075 18.3007 6.7331 18.2117C6.7331 15.6198 6.72588 13.0279 6.73656 10.436C6.74175 9.09578 7.18374 7.89251 8.05935 6.86026C9.00392 5.74658 10.2231 5.07692 11.6902 4.86928C13.3211 4.63798 14.7841 5.06255 16.0668 6.05592C17.1054 6.85913 17.7728 7.90491 18.0962 9.16142C18.2107 9.61694 18.2679 10.0844 18.2667 10.5534C18.2713 11.7375 18.2681 12.9208 18.2681 14.1041ZM11.5491 10.9079C11.5474 10.1365 10.8856 9.48935 10.0991 9.49217C9.30397 9.49527 8.63665 10.15 8.64473 10.9194C8.65281 11.6888 9.31406 12.3281 10.1049 12.3281C10.8881 12.3261 11.5491 11.6767 11.5491 10.9079ZM14.8381 9.49921C14.6447 9.50841 14.4551 9.55528 14.2805 9.63707C14.1059 9.71887 13.9498 9.83393 13.8214 9.9755C13.693 10.1171 13.5949 10.2823 13.5329 10.4614C13.4709 10.6405 13.4461 10.83 13.4602 11.0186C13.5179 11.7874 14.2484 12.399 15.0181 12.3219C15.8701 12.2373 16.3923 11.5499 16.3521 10.8433C16.3433 10.658 16.297 10.4761 16.2161 10.3082C16.1352 10.1402 16.0211 9.98955 15.8805 9.8647C15.7399 9.73986 15.5754 9.64332 15.3966 9.58061C15.2177 9.51789 15.0279 9.49023 14.8381 9.49921Z" fill="#FBF5EF"/>
</svg>
