<svg width="25" height="25" viewBox="0 0 25 25" fill="none" xmlns="http://www.w3.org/2000/svg">
<path d="M12.5 24.0739C18.8922 24.0739 24.0741 18.8921 24.0741 12.4999C24.0741 6.10767 18.8922 0.925781 12.5 0.925781C6.10779 0.925781 0.925903 6.10767 0.925903 12.4999C0.925903 18.8921 6.10779 24.0739 12.5 24.0739Z" stroke="#FBF5EF"/>
<path d="M12.9593 20.6981C12.0151 20.6771 10.8107 20.6504 9.65707 20.2368C8.59549 19.857 7.92398 19.1307 7.69584 18.0283C7.65497 17.8309 7.56598 17.7325 7.38543 17.6469C5.93688 16.9724 4.89288 15.953 4.60886 14.3298C4.39624 13.1166 4.58714 11.9336 5.00825 10.7891C5.836 8.53392 7.23747 6.74002 9.42427 5.63754C11.4486 4.61605 13.5283 4.57402 15.5967 5.50684C17.6795 6.44582 19.0985 8.04291 20.0354 10.0813C20.5336 11.1643 20.7908 12.2991 20.738 13.4994C20.6609 15.2605 19.8347 16.5808 18.3344 17.4824C17.9304 17.7254 17.665 17.9575 17.5491 18.4562C17.3142 19.468 16.5382 20.0149 15.5832 20.3362C14.8165 20.5956 14.0208 20.6627 12.9593 20.6981ZM12.5883 12.9223C14.6334 12.9797 16.5589 11.398 16.5636 9.13821C16.5687 6.964 14.7937 5.35359 12.6866 5.33258C10.4962 5.31105 8.71138 6.98809 8.69844 9.05467C8.68499 11.2063 10.3979 12.9075 12.5883 12.9198V12.9223ZM12.8097 20.3875C13.5858 20.3849 14.2893 20.3414 14.9826 20.1825C15.7586 20.0041 16.4736 19.7089 16.9562 19.0257C17.2925 18.5505 17.3184 17.9929 17.4327 17.4532C17.5243 17.0262 17.381 16.7356 17.0706 16.4686C16.4901 15.9678 15.8057 15.6818 15.0793 15.4825C13.7477 15.116 12.3943 15.0914 11.0332 15.2775C10.2882 15.38 9.5536 15.5429 8.89917 15.9263C7.99538 16.4558 7.75067 16.8694 7.97624 17.8643C8.22404 18.959 8.84123 19.6505 9.89712 19.9918C10.8635 20.3081 11.8687 20.3598 12.8097 20.3875ZM6.45784 10.2474C6.48681 9.97776 6.3849 9.50775 6.33782 9.03417C6.33213 8.97522 6.33782 8.89373 6.28039 8.87425C6.19244 8.84452 6.17382 8.94088 6.14123 8.99316C5.63663 9.79415 5.25809 10.6666 5.0186 11.5805C4.79097 12.4713 4.6875 13.3687 4.85046 14.2857C4.90634 14.5988 4.93945 14.6142 5.18053 14.4154C5.40333 14.2267 5.58725 13.9971 5.72218 13.7393C6.27832 12.7147 6.42887 11.601 6.45784 10.2474ZM19.0556 8.82505C18.9785 8.89424 18.9816 8.97266 18.9718 9.04595C18.8731 9.73815 18.8547 10.4393 18.917 11.1356C18.9977 11.9357 19.1508 12.7173 19.5207 13.442C19.6837 13.7624 19.8735 14.0653 20.1586 14.2964C20.2874 14.399 20.3893 14.4051 20.4126 14.2083C20.455 13.8536 20.5217 13.5015 20.5098 13.1417C20.4742 12.1367 20.2439 11.1478 19.8316 10.2289C19.618 9.73783 19.3582 9.2678 19.0556 8.82505V8.82505Z" fill="#FBF5EF"/>
</svg>
