<svg width="25" height="25" viewBox="0 0 25 25" fill="none" xmlns="http://www.w3.org/2000/svg">
<path d="M12.5001 24.0749C18.8923 24.0749 24.0742 18.8931 24.0742 12.5008C24.0742 6.10865 18.8923 0.926758 12.5001 0.926758C6.10791 0.926758 0.926025 6.10865 0.926025 12.5008C0.926025 18.8931 6.10791 24.0749 12.5001 24.0749Z" stroke="#FBF5EF"/>
<path d="M8.173 12.0189C10.0317 12.0189 11.5384 10.5121 11.5384 8.65347C11.5384 6.79482 10.0317 5.28809 8.173 5.28809C6.31435 5.28809 4.80762 6.79482 4.80762 8.65347C4.80762 10.5121 6.31435 12.0189 8.173 12.0189Z" fill="#FBF5EF"/>
<path d="M8.173 19.7122C10.0317 19.7122 11.5384 18.2055 11.5384 16.3468C11.5384 14.4882 10.0317 12.9814 8.173 12.9814C6.31435 12.9814 4.80762 14.4882 4.80762 16.3468C4.80762 18.2055 6.31435 19.7122 8.173 19.7122Z" fill="#FBF5EF"/>
<path d="M16.8268 19.7122C18.6855 19.7122 20.1922 18.2055 20.1922 16.3468C20.1922 14.4882 18.6855 12.9814 16.8268 12.9814C14.9682 12.9814 13.4614 14.4882 13.4614 16.3468C13.4614 18.2055 14.9682 19.7122 16.8268 19.7122Z" fill="#FBF5EF"/>
<path d="M16.8268 12.0189C18.6855 12.0189 20.1922 10.5121 20.1922 8.65347C20.1922 6.79482 18.6855 5.28809 16.8268 5.28809C14.9682 5.28809 13.4614 6.79482 13.4614 8.65347C13.4614 10.5121 14.9682 12.0189 16.8268 12.0189Z" fill="#FBF5EF"/>
</svg>
