<svg width="25" height="25" viewBox="0 0 25 25" fill="none" xmlns="http://www.w3.org/2000/svg">
<path d="M12.5001 24.0739C18.8923 24.0739 24.0742 18.8921 24.0742 12.4999C24.0742 6.10767 18.8923 0.925781 12.5001 0.925781C6.10791 0.925781 0.926025 6.10767 0.926025 12.4999C0.926025 18.8921 6.10791 24.0739 12.5001 24.0739Z" stroke="#FBF5EF"/>
<path d="M12.496 20.6981C12.6279 20.6981 12.8339 20.6567 13.0317 20.5408C17.4829 18.0644 19.0161 16.9795 19.0161 14.1221V8.15073C19.0161 7.2894 18.6534 7.0078 17.961 6.70964C17.0625 6.32867 14.1033 5.27684 13.2049 4.9704C12.9823 4.89586 12.735 4.83789 12.496 4.83789C12.2652 4.83789 12.0178 4.90414 11.7953 4.9704C10.8968 5.21886 7.93768 6.33695 7.03921 6.70964C6.33857 6.99952 5.98413 7.2894 5.98413 8.15073V14.1221C5.98413 16.9795 7.52554 18.0479 11.9684 20.5408C12.1663 20.6567 12.3724 20.6981 12.496 20.6981ZM12.496 19.2074C12.3806 19.2074 12.257 19.166 12.0261 19.0252C8.43225 16.8304 7.29474 16.2092 7.29474 13.8323V11.1116V8.39094C7.29474 8.12589 7.35244 8.01822 7.56676 7.9354C8.73724 7.46332 11.0205 6.70136 12.1581 6.24585C12.2982 6.19616 12.4053 6.17131 12.496 6.17131C12.5949 6.17131 12.702 6.19616 12.8422 6.24585C13.9797 6.70136 16.2382 7.51301 17.4335 7.9354C17.6478 8.00994 17.6972 8.12589 17.6972 8.39094V13.8323C17.6972 16.2092 16.5432 16.847 12.974 19.0252C12.7432 19.166 12.6196 19.2074 12.496 19.2074Z" fill="#FBF5EF"/>
</svg>
