<svg width="47" height="47" viewBox="0 0 47 47" fill="none" xmlns="http://www.w3.org/2000/svg">
<g clip-path="url(#clip0)">
<path d="M22.4745 0H24.4827C24.5361 0.0508455 24.6032 0.0311909 24.6656 0.0358909C25.1194 0.0692182 25.5753 0.0888727 26.0273 0.138009C28.9349 0.4559 31.6972 1.26729 34.2899 2.62559C38.8039 4.98983 42.2145 8.44633 44.5218 12.9951C45.9032 15.7232 46.6924 18.6231 46.9278 21.6738C46.9496 21.955 46.9278 22.2408 47.0021 22.5173V24.4827C46.9513 24.5361 46.9709 24.6032 46.9662 24.6656C46.9329 25.1194 46.9133 25.5753 46.8641 26.0273C46.5462 28.9349 45.7348 31.6972 44.3765 34.2899C42.0112 38.8039 38.554 42.2145 34.0049 44.5218C31.2768 45.9032 28.3769 46.6924 25.3262 46.9278C25.045 46.9496 24.7592 46.9278 24.4827 47.0021H22.5173C22.478 46.9594 22.4267 46.9684 22.3771 46.9667C21.1967 46.9191 20.022 46.7763 18.8645 46.5394C13.9449 45.5336 9.75079 43.2067 6.33218 39.5364C2.5991 35.526 0.519136 30.7671 0.0730636 25.3005C0.0521273 25.0442 0.0786182 24.7784 0 24.5255V22.5173C0.0427273 22.478 0.0337545 22.4263 0.0354636 22.3771C0.0829912 21.1967 0.225881 20.022 0.462736 18.8645C1.46811 13.9449 3.79546 9.75079 7.46574 6.33261C11.474 2.59867 16.2329 0.519136 21.6995 0.0730636C21.9575 0.0521273 22.2216 0.0790455 22.4745 0ZM23.5171 40.2918C26.3656 40.2918 29.2141 40.2918 32.0625 40.2918C32.5183 40.2943 32.9732 40.2527 33.4208 40.1675C34.6416 39.9282 35.6273 39.3488 36.2092 38.202C36.6121 37.409 36.7339 36.5515 36.7352 35.6773C36.7403 30.8847 36.7403 26.0923 36.7352 21.3C36.7393 20.8374 36.7008 20.3754 36.6203 19.9199C36.3771 18.6107 35.7397 17.5883 34.4895 17.0221C33.7853 16.7029 33.0367 16.5756 32.2676 16.5739C29.9535 16.5696 27.6391 16.5696 25.3245 16.5739C25.0053 16.5739 25.0446 16.5372 25.0446 16.8615C25.0446 20.3936 25.0446 23.9257 25.0446 27.4578C25.0446 28.5209 24.0085 29.2622 23.0185 28.9148C22.3592 28.6837 21.9806 28.103 21.9802 27.3138C21.9802 23.8173 21.9818 20.3209 21.9849 16.8247C21.9849 16.6166 21.9302 16.5684 21.7255 16.5684C19.4257 16.576 17.1257 16.5775 14.8255 16.5726C14.3911 16.5718 13.9578 16.6161 13.5326 16.7047C12.1756 16.9879 11.1616 17.7028 10.6472 19.0303C10.3738 19.737 10.2904 20.477 10.2904 21.229C10.2904 26.0359 10.2904 30.8425 10.2904 35.6491C10.286 36.1189 10.329 36.588 10.4186 37.0492C10.7245 38.54 11.5607 39.5655 13.034 40.0248C13.6428 40.2153 14.2709 40.2893 14.9075 40.2893C17.7771 40.291 20.647 40.2918 23.5171 40.2918ZM24.7216 10.2033C24.781 10.2661 24.8297 10.3169 24.878 10.3686C25.8581 11.4184 26.8327 12.4764 27.8202 13.5193C28.2756 14.0009 29.0451 14.0051 29.4865 13.5548C29.9279 13.1045 29.8946 12.4123 29.407 11.941C27.7601 10.3458 26.1136 8.75069 24.4678 7.15554C23.8572 6.56205 23.1825 6.54966 22.569 7.14144C21.8879 7.79858 21.2065 8.45573 20.5249 9.11287C19.537 10.067 18.5445 11.0168 17.5643 11.9794C17.433 12.1061 17.3351 12.2633 17.2794 12.437C17.2237 12.6107 17.212 12.7956 17.2452 12.975C17.2785 13.1543 17.3558 13.3227 17.4701 13.4649C17.5844 13.6071 17.7321 13.7187 17.9002 13.7898C18.3723 13.9923 18.9004 13.8577 19.3072 13.4211C20.2775 12.3802 21.2666 11.3561 22.2152 10.2951C22.2477 10.2584 22.269 10.1905 22.357 10.2182C22.3318 10.7993 22.2895 11.3817 22.2844 11.9641C22.2707 13.5373 22.2667 15.1108 22.2724 16.6846C22.2754 17.3473 22.8343 17.8694 23.5068 17.8788C24.1794 17.8882 24.7558 17.3614 24.7558 16.6824C24.7558 14.9028 24.7985 13.1228 24.7237 11.3415C24.7079 10.9711 24.7216 10.5964 24.7216 10.2016V10.2033Z" fill="#FBF5EF"/>
</g>
<defs>
<clipPath id="clip0">
<rect width="47" height="47" fill="white"/>
</clipPath>
</defs>
</svg>
