<svg width="25" height="25" viewBox="0 0 25 25" fill="none" xmlns="http://www.w3.org/2000/svg">
<path d="M12.5 24.499C19.1274 24.499 24.5 19.1264 24.5 12.499C24.5 5.87161 19.1274 0.499023 12.5 0.499023C5.87258 0.499023 0.5 5.87161 0.5 12.499C0.5 19.1264 5.87258 24.499 12.5 24.499Z" stroke="#FBF5EF"/>
<path d="M12.5 19.8924C16.5808 19.8924 19.9468 16.5433 19.9468 12.5C19.9468 8.44892 16.5885 5.10742 12.5077 5.10742C12.1081 5.10742 11.8929 5.35155 11.8929 5.74063V8.49469C11.8929 8.82274 12.1234 9.08975 12.4616 9.08975C12.792 9.08975 13.0226 8.82274 13.0226 8.49469V6.42724C16.1888 6.69425 18.625 9.29574 18.625 12.5C18.625 15.872 15.9044 18.5879 12.5 18.5879C9.10324 18.5879 6.36737 15.872 6.37505 12.5C6.38273 11.0046 6.91301 9.64667 7.80446 8.6015C8.04271 8.28871 8.06576 7.93015 7.80446 7.66313C7.54318 7.38849 7.10513 7.41901 6.82078 7.76994C5.72951 9.05161 5.05322 10.7071 5.05322 12.5C5.05322 16.5433 8.42696 19.8924 12.5 19.8924ZM13.6682 13.5603C14.2522 12.9576 14.1292 12.1337 13.4299 11.6607L9.63351 9.03635C9.24926 8.76934 8.85731 9.16605 9.12629 9.53986L11.7623 13.3162C12.2464 14.0105 13.0687 14.1325 13.6682 13.5603Z" fill="#FBF5EF"/>
</svg>
