<svg width="48" height="47" viewBox="0 0 48 47" fill="none" xmlns="http://www.w3.org/2000/svg">
<path d="M23.9418 46.8837C27.2251 46.8837 30.3105 46.2737 33.1982 45.0537C36.0858 43.8336 38.6323 42.1392 40.8377 39.9702C43.0429 37.8013 44.7735 35.3031 46.0295 32.4758C47.2854 29.6484 47.9134 26.6371 47.9134 23.4419C47.9134 20.2466 47.2854 17.2352 46.0295 14.4078C44.7735 11.5805 43.038 9.08237 40.8228 6.91346C38.6076 4.74451 36.0562 3.05004 33.1685 1.83005C30.2809 0.610016 27.1954 0 23.9122 0C20.6487 0 17.5732 0.610016 14.6855 1.83005C11.7979 3.05004 9.25634 4.74451 7.0609 6.91346C4.8655 9.08237 3.13982 11.5805 1.88388 14.4078C0.627962 17.2352 0 20.2466 0 23.4419C0 26.6371 0.627962 29.6484 1.88388 32.4758C3.13982 35.3031 4.87044 37.8013 7.07572 39.9702C9.28105 42.1392 11.8275 43.8336 14.7152 45.0537C17.6029 46.2737 20.6784 46.8837 23.9418 46.8837ZM35.5936 26.1089C35.5936 28.6925 35.5936 31.2762 35.5936 33.8599C35.6098 34.4154 35.5153 34.9686 35.3156 35.4867C34.8176 36.6926 33.8047 37.109 32.6211 37.109C28.9116 37.133 25.2018 37.133 21.4918 37.109C19.7208 37.0973 18.606 35.9851 18.5988 34.1969C18.5774 28.8049 18.5774 23.4125 18.5988 18.0199C18.6069 16.202 19.6957 15.1358 21.4855 15.1277C25.1956 15.1114 28.9056 15.1114 32.6157 15.1277C34.5101 15.1358 35.5659 16.2146 35.5829 18.1334C35.6007 20.7922 35.5873 23.451 35.5873 26.1098L35.5936 26.1089ZM31.3422 23.4768C31.3422 21.1108 29.4938 19.285 27.0868 19.2798C24.7242 19.2747 22.8377 21.1237 22.8359 23.4458C22.8325 24.555 23.2861 25.6193 24.0954 26.4013C24.9047 27.1834 26.0024 27.618 27.1436 27.6084C29.4388 27.6092 31.3422 25.7378 31.3422 23.4768ZM27.1014 33.5543H30.1631C30.4908 33.5543 30.7282 33.4084 30.7345 32.9663C30.7408 32.5407 30.4998 32.4136 30.2001 32.3816C30.081 32.3705 29.96 32.375 29.8391 32.3738C28.1879 32.3738 26.5367 32.3738 24.8855 32.3738C24.5544 32.3604 24.2229 32.3692 23.8926 32.4004C23.5316 32.4523 23.3592 32.8038 23.4837 33.1928C23.5884 33.5244 23.8267 33.5576 24.0795 33.5576C25.0895 33.5532 26.0959 33.5554 27.1014 33.5543ZM27.0336 31.1757C28.0715 31.1757 29.1102 31.1757 30.148 31.1757C30.4774 31.1757 30.7253 31.0553 30.7344 30.5911C30.7434 30.1268 30.4964 29.9881 30.1661 29.9881C28.1194 29.9881 26.0733 29.9881 24.0278 29.9881C23.6848 29.9881 23.4206 30.1108 23.445 30.6277C23.4677 31.1149 23.7409 31.1779 24.0549 31.1757C25.0475 31.1745 26.041 31.1779 27.0336 31.1779V31.1757ZM18.6887 9.16643C19.5369 9.45897 20.429 9.53345 21.3031 9.69318C24.0403 10.1948 26.7837 10.656 29.52 11.163C30.6082 11.365 31.5173 11.8558 31.8917 13.0071C31.8917 13.0206 31.9052 13.034 31.9088 13.0484C32.0942 13.7205 32.0879 13.7241 31.4134 13.7241L21.382 13.7295C20.2615 13.7295 19.2171 13.9664 18.3743 14.7659C17.424 15.6633 17.1777 16.8442 17.1732 18.0808C17.1571 22.2382 17.1669 26.3948 17.1669 30.554C17.1669 31.1884 17.1669 31.1893 16.5552 31.0825C16.042 30.9928 15.5288 30.9031 15.0173 30.8133C13.8136 30.5917 12.9098 30.0138 12.5865 28.7494C12.5757 28.7099 12.5336 28.6794 12.5068 28.6444V27.3881C12.6402 27.2131 12.6438 26.9987 12.6787 26.7968C12.96 25.1815 13.2323 23.5663 13.5135 21.9555C14.0796 18.7152 14.6644 15.4775 15.2153 12.2336C15.4589 10.7933 15.9658 9.59447 17.5261 9.17181L18.6887 9.16643Z" fill="#FBF5EF"/>
</svg>
