<svg width="25" height="25" viewBox="0 0 25 25" fill="none" xmlns="http://www.w3.org/2000/svg">
<path d="M12.5001 24.0739C18.8923 24.0739 24.0742 18.8921 24.0742 12.4999C24.0742 6.10767 18.8923 0.925781 12.5001 0.925781C6.10791 0.925781 0.926025 6.10767 0.926025 12.4999C0.926025 18.8921 6.10791 24.0739 12.5001 24.0739Z" stroke="#FBF5EF"/>
<path d="M12.4958 17.0536C10.0056 17.0536 7.96494 15.0238 7.93874 12.5667C7.91143 9.99219 9.99234 7.94065 12.4652 7.94434C15.0084 7.9484 17.041 9.94791 17.0495 12.4729C17.0572 15.036 15.0066 17.0429 12.4958 17.0536ZM12.8545 16.7583C14.7959 16.6886 16.844 14.9478 16.7989 12.4198C16.7546 9.9217 14.7003 8.29088 12.8456 8.23072C15.2893 8.69056 16.5897 10.6952 16.5107 12.6552C16.4288 14.685 14.9771 16.3797 12.8545 16.758V16.7583Z" fill="#FBF5EF"/>
<path d="M12.5469 19.7694C11.6631 19.7772 10.7853 19.6239 9.95641 19.3169C9.92763 19.3066 9.89958 19.2941 9.8708 19.2837C9.78076 19.2512 9.68076 19.2151 9.72319 19.094C9.76563 18.973 9.866 19.0132 9.95457 19.0472C10.3079 19.1883 10.6737 19.2959 11.0472 19.3686C13.809 19.8602 16.1224 19.0652 17.9398 16.9196C18.9731 15.7017 19.4705 14.2624 19.5133 12.6678C19.5133 12.6371 19.5133 12.6065 19.5159 12.5759C19.5185 12.4799 19.5211 12.3755 19.6528 12.3821C19.7742 12.388 19.7661 12.4899 19.7657 12.5766C19.762 13.5284 19.5901 14.4503 19.2019 15.3179C18.1376 17.6961 16.3235 19.1487 13.7636 19.6576C13.3629 19.7362 12.9552 19.7736 12.5469 19.7694V19.7694Z" fill="#FBF5EF"/>
<path d="M7.04332 12.2739C7.11712 10.8246 7.65958 9.57982 8.69985 8.56937C9.60063 7.69435 10.687 7.18986 11.9424 7.06623C13.4038 6.9223 14.7101 7.31349 15.8729 8.20474C16.2516 8.4994 16.5884 8.84432 16.874 9.22996C16.9301 9.30377 16.9962 9.38902 16.8899 9.46726C16.7836 9.5455 16.722 9.44844 16.6685 9.37758C15.8116 8.25936 14.6942 7.56297 13.2997 7.35261C11.7616 7.12085 10.3756 7.49802 9.17035 8.48854C8.14374 9.33219 7.55626 10.4316 7.33521 11.7325C7.29831 11.9432 7.30348 12.1606 7.28945 12.375C7.28281 12.475 7.31492 12.6101 7.15402 12.6038C6.99313 12.5975 7.0352 12.465 7.03446 12.3658C7.03559 12.335 7.03854 12.3043 7.04332 12.2739V12.2739Z" fill="#FBF5EF"/>
<path d="M12.9823 5.22656C15.426 5.34429 17.6176 6.65589 19.0099 9.25879C19.056 9.34551 19.1206 9.44848 18.9889 9.50974C18.8571 9.571 18.8221 9.44885 18.7793 9.36507C17.8567 7.57445 16.4423 6.36102 14.5171 5.77829C12.7694 5.24944 11.0594 5.40038 9.40764 6.18424C9.3128 6.2289 9.18623 6.3577 9.10726 6.19937C9.02829 6.04105 9.19804 6.01485 9.29509 5.96614C10.3199 5.46718 11.3719 5.22656 12.9823 5.22656Z" fill="#FBF5EF"/>
<path d="M5.21881 12.5C5.23062 10.884 5.71108 9.42438 6.67829 8.1268C6.73143 8.05558 6.78346 7.95114 6.89416 8.02568C7.01151 8.10466 6.94361 8.19065 6.88088 8.27479C5.83102 9.6805 5.36199 11.267 5.49189 13.0097C5.64466 15.0646 6.55725 16.7371 8.16359 18.0288C8.19201 18.052 8.22264 18.0727 8.25105 18.0959C8.316 18.1491 8.34737 18.214 8.28795 18.2871C8.22854 18.3602 8.15474 18.341 8.09237 18.2926C7.95215 18.1819 7.81044 18.0742 7.6787 17.9549C6.34691 16.7548 5.53506 15.2757 5.28856 13.4935C5.2407 13.1645 5.21738 12.8325 5.21881 12.5V12.5Z" fill="#FBF5EF"/>
<path d="M19.202 12.4266C19.1905 13.6474 18.9171 14.7309 18.3632 15.7421C18.3455 15.7742 18.3263 15.8067 18.3082 15.8377C18.2643 15.9074 18.2174 15.9853 18.12 15.9303C18.0167 15.8739 18.0462 15.7912 18.0931 15.7089C18.3606 15.253 18.5653 14.763 18.7016 14.2522C19.3182 11.8416 18.7573 9.73435 17.0484 7.9334C16.5487 7.40713 15.955 7.00376 15.3036 6.68527C15.2651 6.66786 15.228 6.64725 15.1929 6.62364C15.1798 6.61527 15.1686 6.60428 15.1599 6.59137C15.1512 6.57845 15.1453 6.56389 15.1425 6.54859C15.1397 6.53328 15.1401 6.51757 15.1436 6.50241C15.1471 6.48726 15.1537 6.473 15.163 6.46052C15.2125 6.38154 15.2852 6.39889 15.3579 6.43321C15.6645 6.57527 15.9586 6.74279 16.2373 6.93401C17.8363 8.04682 18.7987 9.5641 19.1245 11.4859C19.173 11.7971 19.1989 12.1115 19.202 12.4266V12.4266Z" fill="#FBF5EF"/>
<path d="M5.80344 12.1794C5.87522 10.6473 6.47057 9.18633 7.49002 8.04052C8.50946 6.89472 9.89124 6.13352 11.4044 5.88413C11.7386 5.83425 12.0753 5.80382 12.413 5.79297C12.5093 5.78818 12.6126 5.7963 12.6097 5.9262C12.6071 6.04799 12.5067 6.04061 12.4189 6.04245C10.9059 6.07936 9.54899 6.5558 8.38473 7.52676C7.09538 8.60217 6.33409 9.98205 6.10382 11.6479C6.06692 11.9092 6.05695 12.1738 6.0385 12.4373C6.03223 12.5285 6.03112 12.6219 5.9075 12.613C5.79236 12.6034 5.78609 12.5097 5.79052 12.4189C5.79421 12.3392 5.79901 12.2594 5.80344 12.1794Z" fill="#FBF5EF"/>
<path d="M12.9106 22.1164C12.8061 22.1164 12.7017 22.1164 12.5973 22.1164C12.4995 22.1164 12.3784 22.1286 12.3806 21.9851C12.3825 21.8515 12.4984 21.8692 12.5891 21.8677C13.5032 21.8507 14.4003 21.7201 15.2719 21.4426C17.5756 20.7045 19.3469 19.2962 20.5858 17.2177C20.6297 17.1439 20.6729 17.0701 20.7168 16.9963C20.7567 16.9287 20.8039 16.8697 20.8925 16.9158C20.981 16.9619 20.977 17.0383 20.9327 17.118C20.7001 17.5439 20.4348 17.951 20.1393 18.3359C18.5525 20.3701 16.4812 21.5883 13.9398 22.0102C13.7704 22.0382 13.5984 22.0519 13.4272 22.0681C13.256 22.0843 13.0844 22.0954 12.9128 22.1091L12.9106 22.1164Z" fill="#FBF5EF"/>
<path d="M12.1493 19.1961C10.6319 19.1068 9.29418 18.5708 8.13619 17.5882C7.41764 16.9769 6.83768 16.2193 6.435 15.3661C6.39404 15.2809 6.34459 15.1816 6.45788 15.1259C6.58667 15.0635 6.62431 15.1813 6.66712 15.2691C7.38991 16.7482 8.50829 17.8113 10.0223 18.4584C10.7658 18.7708 11.5624 18.9376 12.3689 18.9496C12.4117 18.9496 12.4548 18.9496 12.4976 18.9529C12.5285 18.9546 12.5574 18.9681 12.5786 18.9905C12.5998 19.0129 12.6116 19.0426 12.6116 19.0734C12.6116 19.1043 12.5998 19.134 12.5786 19.1564C12.5574 19.1788 12.5285 19.1922 12.4976 19.1939C12.3829 19.2002 12.2659 19.1961 12.1493 19.1961Z" fill="#FBF5EF"/>
<path d="M12.2225 21.278C9.74744 21.158 7.63848 20.1974 5.94911 18.3403C5.91772 18.3109 5.88964 18.2781 5.86534 18.2425C5.84786 18.2166 5.84074 18.185 5.84538 18.1541C5.85003 18.1231 5.8661 18.095 5.89043 18.0754C5.948 18.0233 6.00114 18.0385 6.05096 18.089C6.08528 18.1241 6.12033 18.1584 6.15355 18.1946C7.57501 19.7416 9.31863 20.6738 11.4066 20.9506C11.7347 20.9968 12.0656 21.0198 12.397 21.0196C12.4878 21.0196 12.6018 21.0064 12.607 21.1381C12.6121 21.2802 12.4963 21.2765 12.3963 21.2776L12.2225 21.278Z" fill="#FBF5EF"/>
<path d="M12.6162 3.0074C12.6 3.12549 12.5077 3.12623 12.4114 3.12845C11.7788 3.13806 11.1485 3.20863 10.5294 3.33917C8.86881 3.69715 7.41856 4.45333 6.16537 5.59517C6.13806 5.61989 6.11149 5.64536 6.08492 5.67119C6.02218 5.73209 5.94912 5.77711 5.87864 5.69703C5.80815 5.61694 5.84542 5.54239 5.9196 5.4756C6.20898 5.20914 6.51238 4.95832 6.8285 4.72421C8.29572 3.66209 9.93171 3.05673 11.7365 2.90812C11.9752 2.88783 12.2162 2.89041 12.4553 2.88487C12.535 2.88303 12.6037 2.90406 12.6162 3.0074Z" fill="#FBF5EF"/>
<path d="M14.3726 3.06378C15.0831 3.20341 15.7749 3.42536 16.434 3.72512C17.5955 4.24816 18.6423 4.99552 19.5142 5.92428C19.5478 5.96119 19.5824 5.99477 19.6131 6.03315C19.6622 6.09404 19.6647 6.15567 19.6053 6.21288C19.5459 6.27008 19.4799 6.25237 19.4278 6.20107C19.3097 6.08445 19.1987 5.96118 19.0806 5.84493C17.7651 4.54957 16.2046 3.7095 14.3988 3.3247C14.3748 3.31953 14.3512 3.31363 14.325 3.30957C14.2339 3.29481 14.197 3.23834 14.2165 3.15272C14.2379 3.07338 14.2966 3.04865 14.3726 3.06378Z" fill="#FBF5EF"/>
<path d="M12.4587 3.71289C13.5805 3.72913 14.6326 3.90701 15.6437 4.30337C15.696 4.32008 15.7449 4.34581 15.7884 4.37939C15.7986 4.38888 15.8069 4.40032 15.8126 4.41304C15.8184 4.42576 15.8215 4.4395 15.8219 4.45346C15.8223 4.46741 15.8199 4.48131 15.8148 4.49432C15.8098 4.50733 15.8021 4.5192 15.7924 4.52923C15.733 4.60488 15.6599 4.57647 15.5913 4.54952C15.1974 4.39516 14.7921 4.27177 14.3791 4.18048C12.991 3.86472 11.5458 3.90279 10.1763 4.29119C10.1461 4.29693 10.1164 4.30482 10.0874 4.31481C9.994 4.35577 9.92425 4.32514 9.89916 4.23399C9.87554 4.14911 9.92905 4.10224 10.0125 4.07677C10.3585 3.97262 10.7111 3.89138 11.0678 3.83357C11.5283 3.76239 11.9929 3.72208 12.4587 3.71289V3.71289Z" fill="#FBF5EF"/>
<path d="M17.9522 12.7075C17.8636 14.2811 17.2488 15.6004 16.0539 16.6404C15.8591 16.8097 15.6512 16.9633 15.4321 17.0999C15.3491 17.1519 15.2476 17.2575 15.1642 17.1283C15.0808 16.9991 15.2056 16.9478 15.293 16.8914C16.2617 16.264 16.9654 15.4196 17.3728 14.3361C17.5789 13.8022 17.6891 13.2361 17.6983 12.6639C17.6962 12.6086 17.6985 12.5532 17.7053 12.4982C17.7175 12.4244 17.7566 12.372 17.8422 12.3809C17.8578 12.3811 17.8732 12.3846 17.8874 12.391C17.9015 12.3975 17.9142 12.4068 17.9246 12.4184C17.935 12.4301 17.9429 12.4437 17.9478 12.4585C17.9526 12.4733 17.9544 12.489 17.9529 12.5045C17.954 12.572 17.9522 12.6396 17.9522 12.7075Z" fill="#FBF5EF"/>
<path d="M4.41096 7.37039C4.51871 7.36375 4.5748 7.47816 4.51871 7.58186C4.37885 7.84019 4.22571 8.09262 4.09508 8.35686C3.46774 9.61864 3.15887 10.9579 3.12714 12.364C3.12714 12.4009 3.12713 12.4378 3.12418 12.4747C3.11975 12.5485 3.09946 12.6124 3.01089 12.6138C2.91569 12.6138 2.88358 12.5533 2.88506 12.4688C2.88838 12.254 2.88506 12.0381 2.89982 11.8244C3.01827 10.2826 3.46442 8.84327 4.26778 7.51764C4.30579 7.45491 4.33789 7.387 4.41096 7.37039Z" fill="#FBF5EF"/>
<path d="M12.2737 17.959C11.0559 17.9039 9.89062 17.447 8.95993 16.6595C8.66544 16.4089 8.39771 16.1284 8.161 15.8225C8.10159 15.7487 8.01118 15.6598 8.1193 15.5701C8.22743 15.4804 8.29311 15.5827 8.35437 15.6598C9.37545 16.9433 10.7017 17.6313 12.3438 17.7014C12.3686 17.7014 12.3929 17.7047 12.4177 17.7036C12.5177 17.6992 12.6151 17.7132 12.6103 17.8394C12.6062 17.9545 12.5103 17.9619 12.4191 17.9593C12.3822 17.959 12.3457 17.959 12.2737 17.959Z" fill="#FBF5EF"/>
<path d="M21.2734 12.5293C21.2663 13.3405 21.1513 14.1472 20.9313 14.9281C20.9228 14.9573 20.9125 14.9864 20.9021 15.0152C20.8737 15.0942 20.8342 15.175 20.7346 15.1388C20.6482 15.1075 20.6331 15.0329 20.6608 14.9407C20.747 14.6592 20.8168 14.373 20.8696 14.0834C21.0934 12.8906 21.0633 11.6641 20.7815 10.4837C20.7759 10.46 20.7656 10.4372 20.7604 10.4132C20.7427 10.3331 20.7538 10.2571 20.8416 10.2334C20.9398 10.2069 20.987 10.2737 21.0084 10.3597C21.0887 10.675 21.1503 10.9948 21.1929 11.3173C21.2487 11.7189 21.2755 12.1239 21.2734 12.5293V12.5293Z" fill="#FBF5EF"/>
<path d="M16.0156 20.5376C15.9488 20.5339 15.9027 20.5062 15.888 20.4453C15.8695 20.3685 15.9042 20.3191 15.9747 20.2844C16.2216 20.1619 16.4729 20.0464 16.7127 19.9098C17.7345 19.3277 18.6247 18.5404 19.3272 17.5974C19.3457 17.573 19.3641 17.5483 19.3833 17.5235C19.4368 17.4582 19.4863 17.3671 19.5892 17.4353C19.6999 17.5092 19.6435 17.5926 19.5867 17.6704C18.701 18.8875 17.5162 19.8553 16.147 20.4804C16.1016 20.5018 16.0562 20.5199 16.0156 20.5376Z" fill="#FBF5EF"/>
<path d="M7.84122 20.699C7.84122 20.8038 7.73679 20.8507 7.6246 20.7864C7.28447 20.5904 6.95811 20.3715 6.64781 20.131C5.77829 19.4637 5.02826 18.6537 4.42962 17.7355C4.40601 17.6986 4.38128 17.6643 4.36062 17.6248C4.32039 17.5528 4.31338 17.482 4.39235 17.4322C4.47132 17.3823 4.53221 17.4281 4.57686 17.4956C4.76709 17.7967 4.97471 18.0864 5.19866 18.3633C5.89011 19.2213 6.72623 19.9518 7.66926 20.5218C7.81059 20.6097 7.84122 20.6414 7.84122 20.699Z" fill="#FBF5EF"/>
<path d="M22.1015 12.0636C22.106 12.1681 22.1145 12.2725 22.1141 12.3769C22.1137 12.4814 22.141 12.6117 21.9831 12.6091C21.8395 12.6065 21.8635 12.4803 21.8617 12.3847C21.8516 11.592 21.7418 10.8037 21.5351 10.0383C21.3781 9.45775 21.164 8.89417 20.896 8.3558C20.8823 8.32849 20.8727 8.29897 20.8591 8.2724C20.8118 8.1901 20.8424 8.12478 20.9148 8.08788C20.9871 8.05097 21.0495 8.10042 21.0801 8.16169C21.1642 8.32517 21.2414 8.49383 21.3152 8.66137C21.7876 9.73634 22.0543 10.8904 22.1015 12.0636Z" fill="#FBF5EF"/>
<path d="M3.71382 12.0646C3.74783 11.5619 3.81987 11.0625 3.92933 10.5707C3.93819 10.5286 3.94815 10.4869 3.9607 10.446C3.98432 10.3696 4.02417 10.3035 4.11679 10.3319C4.20093 10.3574 4.21864 10.4223 4.19909 10.5087C4.12699 10.8194 4.0718 11.1338 4.03377 11.4505C3.9932 11.7673 3.97103 12.0862 3.96734 12.4056C3.96734 12.4975 3.97878 12.6119 3.84704 12.6123C3.70903 12.6123 3.71235 12.4971 3.71272 12.396C3.71383 12.2857 3.71382 12.175 3.71382 12.0646Z" fill="#FBF5EF"/>
</svg>
